# xmcd CD database file
#
# Track frame offsets:
#	150
#	23516
#	58384
#	87278
#	102056
#	139240
#	167815
#
# Disc length: 2719 seconds
#
# Revision: 1
# Processed by: cddbd v1.4PL0 Copyright (c) Steve Scherf et al.
# Submitted via: CDex 1.51
#
DISCID=560a9d07
DTITLE=Erik Berglund - Elysium, Abode of the Angels 
DYEAR=1994
DGENRE=New Age
TTITLE0=Garden of the Heart
TTITLE1=Angel Prayer
TTITLE2=Star Memories
TTITLE3=Angel Lullaby
TTITLE4=Awakening
TTITLE5=Ancient Voices
TTITLE6=Herald of the New Dawn
EXTD=YEAR: 1994
EXTT0=
EXTT1=
EXTT2=
EXTT3=
EXTT4=
EXTT5=
EXTT6=
PLAYORDER=
